<svg width="512" height="512" viewBox="0 0 512 512" fill="none" xmlns="http://www.w3.org/2000/svg">
  <defs>
    <linearGradient id="bg" x1="0" y1="0" x2="512" y2="512" gradientUnits="userSpaceOnUse">
      <stop offset="0%" stop-color="#064E3B"/>
      <stop offset="100%" stop-color="#1E293B"/>
    </linearGradient>
    <linearGradient id="leafGrad" x1="24" y1="6" x2="32" y2="16" gradientUnits="userSpaceOnUse">
      <stop offset="0%" stop-color="#34D399"/>
      <stop offset="100%" stop-color="#059669"/>
    </linearGradient>
  </defs>
  <!-- Full-bleed background (the OS applies the rounded/circle mask) -->
  <rect width="512" height="512" fill="url(#bg)"/>
  <!-- Logo glyph centered within the maskable safe zone -->
  <g transform="translate(-74 -14) scale(15)">
    <path d="M12 29V11h3.2v7.4l7.2-7.4h4l-7.4 7.6L26.6 29h-4l-5.2-7.6-2.2 2.3V29H12z" fill="white" opacity="0.95"/>
    <path d="M28 7c3.5 2 5 5.5 4 9-1.5-1-3.5-1.5-5.5-.8 0-3.2 0.5-5.8 1.5-8.2z" fill="url(#leafGrad)" opacity="0.9"/>
    <path d="M28.5 7.5c0 0 1 3.5 0.5 6.5" stroke="#6EE7B7" stroke-width="0.6" stroke-linecap="round" opacity="0.7"/>
  </g>
</svg>
